<?xml version="1.0" encoding="utf-8"?>
<!-- Generator: Adobe Illustrator 27.5.0, SVG Export Plug-In . SVG Version: 6.00 Build 0)  -->
<svg version="1.1" xmlns="http://www.w3.org/2000/svg" xmlns:xlink="http://www.w3.org/1999/xlink" x="0px" y="0px"
	 viewBox="0 0 2200 2200" style="enable-background:new 0 0 2200 2200;" xml:space="preserve">
<g id="background">
	<rect y="0" style="fill:#FFFFFF;" width="2200" height="2200"/>
</g>
<g id="Objects">
	<g>
		<g>
			<path style="fill:#332525;" d="M1524.929,706.561h-132.495v-94.633c0-161.249-131.186-292.434-292.435-292.434
				S807.565,450.68,807.565,611.928v94.632H675.071v-94.632C675.071,377.622,865.693,187,1100,187s424.929,190.622,424.929,424.928
				V706.561z"/>
			<g>
				<path style="fill:#DB2626;" d="M1670.642,759.833c-94.373-89.638-242.704-120.381-366.172-75.874
					c-92.44,33.307-167.472,107.551-204.47,196.521c-36.998-88.97-112.038-163.213-204.479-196.521
					c-123.468-44.508-271.799-13.764-366.172,75.874c-93.741,89.052-137.095,227.255-112.725,352.783
					c69.17,356.373,454.171,625.223,683.376,725.2c229.196-99.978,614.197-368.828,683.376-725.2
					C1807.746,987.088,1764.383,848.885,1670.642,759.833z M1139.508,1278.119l10.632,125.318
					c0.788,9.378-6.594,17.418-15.99,17.418h-68.3c-9.396,0-16.777-8.041-15.99-17.418l10.632-125.318
					c-32.694-14.982-55.415-47.997-55.415-86.314c0-52.42,42.511-94.913,94.922-94.913c52.411,0,94.922,42.493,94.922,94.913
					C1194.923,1230.122,1172.202,1263.136,1139.508,1278.119z"/>
			</g>
		</g>
		<ellipse style="fill:#DBDBDB;" cx="1100" cy="1972.594" rx="411.892" ry="40.406"/>
	</g>
</g>
</svg>
