<?xml version="1.0" encoding="utf-8"?>
<!-- Generator: Adobe Illustrator 27.5.0, SVG Export Plug-In . SVG Version: 6.00 Build 0)  -->
<svg version="1.1" xmlns="http://www.w3.org/2000/svg" xmlns:xlink="http://www.w3.org/1999/xlink" x="0px" y="0px"
	 viewBox="0 0 2200 2200" style="enable-background:new 0 0 2200 2200;" xml:space="preserve">
<g id="background">
	<rect y="0" style="fill:#FFFFFF;" width="2200" height="2200"/>
</g>
<g id="Objects">
	<g>
		<g>
			<g>
				<path style="fill:#DB2626;" d="M2012.056,812.9c-92.33,475.625-606.16,834.44-912.06,967.875
					c-305.9-133.435-819.73-492.25-912.05-967.875c-32.52-167.537,25.34-351.983,150.45-470.835
					c125.95-119.634,323.92-160.666,488.7-101.269c123.38,44.462,223.52,143.551,272.9,262.287
					c49.38-118.735,149.52-217.824,272.9-262.287c164.78-59.397,362.75-18.365,488.7,101.269
					C1986.705,460.917,2044.575,645.363,2012.056,812.9z"/>
			</g>
			<path style="fill:#FFFFFF;" d="M576.773,454.298c-59.404,10.267-118.33,41.19-163.67,82.527
				C349.248,594.559,306.67,675.095,297.461,761.2c-0.653,5.83-5.935,10.025-11.762,9.335c-5.016-0.591-8.795-4.604-9.292-9.427
				c-2.15-20.82-2.854-42.012-1.653-63.426c4.692-82.245,36.621-162.312,86.448-227.869c31.347-41.112,69.484-76.88,113.406-104.952
				c20.432-13.104,42.309-24.675,65.187-34.312c33.012-14.094,71.199,1.242,85.293,34.254
				C641.768,402.508,617.317,447.493,576.773,454.298L576.773,454.298z"/>
			<g>
				<path style="fill:#FFFFFF;" d="M301.816,814.35c0.476,5.774,1.302,11.518,2.444,17.196c1.134,5.692-2.337,11.219-7.809,12.764
					c-0.331,0.094-0.666,0.176-1.006,0.238c-6.15,1.148-12.005-3.038-12.941-9.213c-0.945-6.126-1.492-12.641-1.643-19.834
					c-0.109-4.839,3.067-9.082,7.641-10.374c0.342-0.097,0.69-0.172,1.041-0.236C295.612,803.823,301.304,808.205,301.816,814.35z"
					/>
			</g>
		</g>
		<ellipse style="fill:#E0E0E0;" cx="1100" cy="1950.702" rx="402.282" ry="35.443"/>
	</g>
</g>
</svg>
